M48
; DRILL file {KiCad 9.0.7} date 2026-03-23T17:25:13+0800
; FORMAT={-:-/ absolute / metric / decimal}
; #@! TF.CreationDate,2026-03-23T17:25:13+08:00
; #@! TF.GenerationSoftware,Kicad,Pcbnew,9.0.7
; #@! TF.FileFunction,Plated,1,2,PTH
FMAT,2
METRIC
; #@! TA.AperFunction,Plated,PTH,ViaDrill
T1C0.300
; #@! TA.AperFunction,Plated,PTH,ComponentDrill
T2C0.800
; #@! TA.AperFunction,Plated,PTH,ComponentDrill
T3C0.950
; #@! TA.AperFunction,Plated,PTH,ComponentDrill
T4C1.000
; #@! TA.AperFunction,Plated,PTH,ComponentDrill
T5C1.016
%
G90
G05
T1
X106.045Y-93.98
X110.49Y-91.44
X131.445Y-95.885
X138.43Y-119.38
X144.78Y-91.44
X147.32Y-94.615
X147.32Y-125.73
X149.225Y-126.642
X149.86Y-92.075
X153.035Y-100.965
X153.035Y-120.65
T2
X135.75Y-91.818
X135.75Y-94.318
X137.16Y-122.643
X137.16Y-125.143
X156.5Y-99.0
X159.0Y-99.0
T3
X121.71Y-120.793
X121.71Y-123.293
X121.71Y-125.793
X128.71Y-120.793
X128.71Y-123.293
X128.71Y-125.793
T4
X108.9Y-85.8
X111.4Y-85.8
X117.65Y-85.8
X120.15Y-85.8
X154.25Y-86.0
X156.75Y-86.0
T5
X109.05Y-99.0
X109.05Y-114.24
X111.59Y-99.0
X111.59Y-114.24
X114.13Y-99.0
X114.13Y-114.24
X116.67Y-99.0
X116.67Y-114.24
X119.21Y-99.0
X119.21Y-114.24
X121.75Y-99.0
X121.75Y-114.24
X124.29Y-99.0
X124.29Y-114.24
X126.83Y-99.0
X126.83Y-114.24
X129.37Y-99.0
X129.37Y-114.24
X131.91Y-99.0
X131.91Y-114.24
X134.45Y-99.0
X134.45Y-114.24
X136.99Y-99.0
X136.99Y-114.24
X139.53Y-99.0
X139.53Y-114.24
X142.07Y-99.0
X142.07Y-114.24
X144.61Y-99.0
X144.61Y-114.24
M30
